<svg xmlns="http://www.w3.org/2000/svg" width="18" height="18" viewBox="0 0 18 18">
  <g id="Layer_2" data-name="Layer 2" transform="translate(0.025 0.444)">
    <g id="phone-call">
      <rect id="Rectangle_149" data-name="Rectangle 149" width="18" height="18" transform="translate(-0.025 -0.444)" opacity="0"/>
      <path id="Path_434" data-name="Path 434" d="M12.747,7.494a2.241,2.241,0,0,1,2.241,2.241.747.747,0,1,0,1.494,0A3.734,3.734,0,0,0,12.747,6a.747.747,0,1,0,0,1.494Z" transform="translate(-3.037 -1.519)"/>
      <path id="Path_435" data-name="Path 435" d="M12.747,3.494a5.228,5.228,0,0,1,5.228,5.228.747.747,0,0,0,1.494,0A6.722,6.722,0,0,0,12.747,2a.747.747,0,0,0,0,1.494Z" transform="translate(-3.037 -0.506)"/>
      <path id="Path_436" data-name="Path 436" d="M16.751,12.389a.747.747,0,0,0-.538-.485L11.732,10.88a.747.747,0,0,0-.687.194c-.1.1-.112.1-.6,1.031A7.4,7.4,0,0,1,6.81,8.453c.949-.478.956-.478,1.053-.59a.747.747,0,0,0,.194-.687L7.034,2.747a.747.747,0,0,0-.485-.538,2.831,2.831,0,0,0-.538-.134A2.943,2.943,0,0,0,5.436,2,3.436,3.436,0,0,0,2,5.436a11.517,11.517,0,0,0,11.5,11.5A3.436,3.436,0,0,0,16.938,13.5a3.563,3.563,0,0,0-.045-.568A3.242,3.242,0,0,0,16.751,12.389ZM13.5,15.444A10.016,10.016,0,0,1,3.494,5.436,1.949,1.949,0,0,1,5.436,3.494h.246l.8,3.465-.4.209c-.642.336-1.15.6-.881,1.188a8.85,8.85,0,0,0,5.363,5.385c.627.254.874-.217,1.21-.866l.217-.411,3.458.792V13.5A1.949,1.949,0,0,1,13.5,15.444Z" transform="translate(-0.506 -0.506)"/>
    </g>
  </g>
</svg>
