<svg xmlns="http://www.w3.org/2000/svg" width="28.243" height="23.512" viewBox="0 0 28.243 23.512">
  <path id="Path_2127" data-name="Path 2127" d="M35.082,56.878H33.293l-5.459-5.459a1.434,1.434,0,1,0-2.025,2.03l3.43,3.429H18.411l3.429-3.429a1.435,1.435,0,1,0-2.03-2.03l-5.459,5.459H12.567A2.868,2.868,0,0,0,9.7,59.746V60a2.869,2.869,0,0,0,2.472,2.839l1.365,9.221a2.889,2.889,0,0,0,2.839,2.449H31.268a2.884,2.884,0,0,0,2.839-2.449l1.365-9.221A2.874,2.874,0,0,0,37.943,60v-.258a2.86,2.86,0,0,0-2.862-2.867Zm-8.464-4.244a.288.288,0,0,1-.086-.2.271.271,0,0,1,.086-.2.294.294,0,0,1,.407,0l4.645,4.645h-.809Zm-5.993-.4a.29.29,0,0,1,.493.2.271.271,0,0,1-.086.2l-4.244,4.244H15.98ZM32.971,71.9a1.731,1.731,0,0,1-1.7,1.468H16.381a1.731,1.731,0,0,1-1.7-1.468l-1.336-9.026H34.313ZM36.8,60a1.725,1.725,0,0,1-1.72,1.72H12.567A1.725,1.725,0,0,1,10.847,60v-.258a1.725,1.725,0,0,1,1.72-1.72H35.076a1.725,1.725,0,0,1,1.72,1.72V60Z" transform="translate(-9.7 -51)"/>
</svg>
