<svg xmlns="http://www.w3.org/2000/svg" width="16.8" height="29.4" viewBox="0 0 16.8 29.4">
  <g id="Group_51690" data-name="Group 51690" transform="translate(-8 -2)">
    <path id="Path_7653" data-name="Path 7653" d="M24.25,18.25v10.5a2.106,2.106,0,0,1-2.1,2.1H10.6a2.106,2.106,0,0,1-2.1-2.1V4.6a2.106,2.106,0,0,1,2.1-2.1H22.15a2.106,2.106,0,0,1,2.1,2.1Z" transform="translate(0.025 0.025)" fill="#607d95"/>
    <path id="Path_7654" data-name="Path 7654" d="M8.5,6.5H24.25V25.4H8.5Z" transform="translate(0.025 0.225)" fill="#90cff1"/>
    <path id="Path_7655" data-name="Path 7655" d="M21.844,19.423l-1.365-1.365a.647.647,0,0,0-.735-.1l-1.26.84a1.269,1.269,0,0,1-1.47-.1l-3.255-3.255a1.124,1.124,0,0,1-.105-1.47l.84-1.26a.647.647,0,0,0-.105-.735l-1.26-1.26a.639.639,0,0,0-.84,0l-1.155,1.155a2.249,2.249,0,0,0-.63,2.205,7.194,7.194,0,0,0,2,3.465l2.415,2.415a7.71,7.71,0,0,0,3.465,2,2.127,2.127,0,0,0,2.205-.63l1.155-1.155c.42-.21.42-.525.105-.735Z" transform="translate(0.121 0.428)" fill="#607d95"/>
    <path id="Path_7656" data-name="Path 7656" d="M20.955,21.1l.84-.84a.639.639,0,0,0,0-.84L20.43,18.058a.647.647,0,0,0-.735-.1l-1.155.735L20.955,21.1ZM13.71,13.858l.735-1.155a.647.647,0,0,0-.105-.735l-1.26-1.26a.639.639,0,0,0-.84,0l-.84.84,2.31,2.31Z" transform="translate(0.17 0.428)" fill="#4b6c85"/>
    <path id="Path_7657" data-name="Path 7657" d="M19.319,21.26a7.526,7.526,0,0,1-3.57-2l-2.52-2.52a7.526,7.526,0,0,1-2-3.57,2.036,2.036,0,0,1,.21-1.575l-.21.21a2.249,2.249,0,0,0-.63,2.205,7.194,7.194,0,0,0,2,3.465L15.014,19.9a7.71,7.71,0,0,0,3.465,2,2.127,2.127,0,0,0,2.205-.63L21,20.945a2.334,2.334,0,0,1-1.68.315Z" transform="translate(0.126 0.48)" fill="#4b6c85"/>
    <path id="Path_7658" data-name="Path 7658" d="M21.69,19.2a.9.9,0,0,1-1.365,0l-.945-.945-.735.42,2.31,2.31.84-.84a.639.639,0,0,0,0-.84l-.105-.1Zm-7.35-7.35a.788.788,0,0,1-1.26.105L12.03,10.9l-.63.63,2.31,2.31.735-1.155a.647.647,0,0,0-.105-.735v-.105Z" transform="translate(0.17 0.445)" fill="#40657c"/>
    <path id="Path_7659" data-name="Path 7659" d="M11.125,5.125A.5.5,0,0,1,10.6,4.6a2.106,2.106,0,0,1,2.1-2.1H10.6A2.106,2.106,0,0,0,8.5,4.6V6.7H24.25V5.125Z" transform="translate(0.025 0.025)" fill="#4b6c85"/>
    <path id="Path_7660" data-name="Path 7660" d="M8.5,6.5h2.1V25.4H8.5Z" transform="translate(0.025 0.225)" fill="#70b7e6"/>
    <path id="Path_7661" data-name="Path 7661" d="M24.25,26.075V24.5H8.5v3.15a2.106,2.106,0,0,0,2.1,2.1h2.1a2.106,2.106,0,0,1-2.1-2.1v-.525a.992.992,0,0,1,1.05-1.05Z" transform="translate(0.025 1.125)" fill="#4b6c85"/>
    <path id="Path_7662" data-name="Path 7662" d="M17.95,5.05H14.8a.5.5,0,0,1-.525-.525A.5.5,0,0,1,14.8,4h3.15a.5.5,0,0,1,.525.525A.5.5,0,0,1,17.95,5.05Zm-7.35,0h-.21c-.105,0-.105-.105-.21-.105s-.105-.105-.105-.21v-.21a.631.631,0,0,1,.105-.42A.367.367,0,0,1,10.39,4h.42c.105,0,.105.105.21.105,0,.105.105.315.105.42s-.105.315-.21.315a.367.367,0,0,1-.21.105c0,.105,0,.105-.105.105Zm13.125,2.1H9.025a.525.525,0,0,1,0-1.05h14.7a.525.525,0,1,1,0,1.05Zm0,18.9H9.025a.525.525,0,0,1,0-1.05h14.7a.525.525,0,0,1,0,1.05Z" transform="translate(0.025 0.1)" fill="#004463"/>
    <path id="Path_7663" data-name="Path 7663" d="M22.175,31.4H10.625A2.6,2.6,0,0,1,8,28.775V4.625A2.6,2.6,0,0,1,10.625,2h11.55A2.6,2.6,0,0,1,24.8,4.625v24.15A2.6,2.6,0,0,1,22.175,31.4ZM10.625,3.05A1.615,1.615,0,0,0,9.05,4.625v24.15a1.615,1.615,0,0,0,1.575,1.575h11.55a1.615,1.615,0,0,0,1.575-1.575V4.625A1.615,1.615,0,0,0,22.175,3.05Z" fill="#004463"/>
    <path id="Path_7664" data-name="Path 7664" d="M17.874,28.9h-3.15a.5.5,0,0,1-.525-.525v-1.05a.5.5,0,0,1,.525-.525h3.15a.5.5,0,0,1,.525.525v1.05A.5.5,0,0,1,17.874,28.9Zm-2.625-1.05h0Zm3.885-5.25A2.05,2.05,0,0,1,18.4,22.5a7.522,7.522,0,0,1-3.78-2.1L12.2,17.98a7.522,7.522,0,0,1-2.1-3.78,2.936,2.936,0,0,1,.735-2.73l1.155-1.155a1.142,1.142,0,0,1,1.575,0l1.365,1.365a.989.989,0,0,1,.105,1.365l-.84,1.26a.65.65,0,0,0,.105.84L17.559,18.4a.793.793,0,0,0,.84.105l1.26-.84a1.1,1.1,0,0,1,1.365.1l1.365,1.365a1.134,1.134,0,0,1,.315.735,1.192,1.192,0,0,1-.315.84l-1.155,1.155a3.908,3.908,0,0,1-2.1.735Zm-6.3-11.55-1.26,1.155a2.155,2.155,0,0,0-.525,1.785,6.39,6.39,0,0,0,1.89,3.255l2.415,2.415a6.849,6.849,0,0,0,3.255,1.89,1.5,1.5,0,0,0,1.68-.525l1.155-1.155-1.365-1.365-1.365.84a1.74,1.74,0,0,1-2.1-.21L13.359,15.88a1.74,1.74,0,0,1-.21-2.1l.84-1.26-1.155-1.47Z" transform="translate(0.101 0.4)" fill="#004463"/>
    <path id="Path_7665" data-name="Path 7665" d="M13.728,14.3a.631.631,0,0,1-.42-.105l-2.1-2.1a.52.52,0,1,1,.735-.735l2.1,2.1a.508.508,0,0,1,0,.735C14.043,14.3,13.938,14.3,13.728,14.3Zm7.035,7.14a.631.631,0,0,1-.42-.1l-2.1-2.1a.52.52,0,0,1,.735-.735l2.1,2.1a.508.508,0,0,1,0,.735.46.46,0,0,1-.315.1Zm-4.2-6.93a1.039,1.039,0,1,1,1.47,1.47m3.78,1.05h-.105a.576.576,0,0,1-.42-.63,4.15,4.15,0,0,0-5.145-5.145c-.315.105-.525-.105-.63-.42s.1-.525.42-.63a5,5,0,0,1,5.04,1.365,5.061,5.061,0,0,1,1.365,5.04A.48.48,0,0,1,21.813,17.035Z" transform="translate(0.153 0.4)" fill="#004463"/>
    <path id="Path_7666" data-name="Path 7666" d="M19.576,16.306h-.1a.576.576,0,0,1-.42-.63,2.047,2.047,0,0,0-2.52-2.52c-.315.105-.525-.105-.63-.42s.105-.525.42-.63a3.2,3.2,0,0,1,3.885,3.885.908.908,0,0,1-.63.315Z" transform="translate(0.394 0.499)" fill="#004463"/>
  </g>
</svg>
