<svg xmlns="http://www.w3.org/2000/svg" width="45.905" height="45.5" viewBox="0 0 45.905 45.5">
  <g id="Group_51639" data-name="Group 51639" transform="translate(-2.5 -2.5)">
    <path id="Path_7607" data-name="Path 7607" d="M48.4,25.452V46.833A1.165,1.165,0,0,1,47.238,48H3.667A1.165,1.165,0,0,1,2.5,46.833V21.344a1.236,1.236,0,0,1,.117-.506c-.521-5.54.848-7.282,2.171-8.963A7.855,7.855,0,0,0,6.242,9.495a1.166,1.166,0,0,1,2.194,0,7.855,7.855,0,0,0,1.455,2.381c1.323,1.681,2.692,3.416,2.171,8.963a1.207,1.207,0,0,1,.117.506v2.941h2.163c-1.315-9.01,2.319-11.811,5.851-14.511a16.221,16.221,0,0,0,4.093-3.991V3.667a1.167,1.167,0,1,1,2.334,0V5.783a16.221,16.221,0,0,0,4.093,3.991c3.532,2.7,7.166,5.5,5.851,14.511h2.163V21.344a1.207,1.207,0,0,1,.117-.506c-.521-5.547.848-7.282,2.171-8.963a7.855,7.855,0,0,0,1.455-2.381,1.166,1.166,0,0,1,2.194,0,7.855,7.855,0,0,0,1.455,2.381c1.323,1.681,2.692,3.423,2.171,8.963a1.236,1.236,0,0,1,.117.506ZM46.07,45.666V26.619H41.06V45.666Zm0-21.381V22.511H41.06v1.774Zm-.062-4.108c.335-4.256-.622-5.462-1.719-6.847-.233-.3-.482-.607-.724-.949-.241.342-.482.654-.716.949-1.1,1.385-2.062,2.591-1.719,6.847ZM38.726,45.666V30.074H12.179V45.666h7.236v-9.5A1.17,1.17,0,0,1,20.582,35h.226a4.324,4.324,0,0,1,2.614-2.957,6.744,6.744,0,0,0,1.26-.817,1.174,1.174,0,0,1,1.541,0,6.744,6.744,0,0,0,1.26.817A4.324,4.324,0,0,1,30.1,35h.226a1.17,1.17,0,0,1,1.167,1.167v9.5Zm0-17.926v-1.12H12.179v1.12Zm-4.513-3.455c1.26-7.936-1.611-10.13-4.917-12.651a22.242,22.242,0,0,1-3.844-3.478,22.243,22.243,0,0,1-3.844,3.478c-3.307,2.521-6.178,4.715-4.917,12.651ZM29.156,45.666V37.333h-.109a1.166,1.166,0,0,1-1.167-1.167c0-1.245-.443-1.494-1.517-2.077-.288-.156-.6-.327-.91-.529-.311.2-.622.373-.91.529-1.074.584-1.517.833-1.517,2.077a1.166,1.166,0,0,1-1.167,1.167h-.109v8.333Zm-19.311,0V26.619H4.834V45.666Zm0-21.381V22.511H4.834v1.774Zm-.07-4.108c.342-4.256-.615-5.462-1.719-6.847-.233-.3-.475-.607-.716-.949-.241.342-.49.654-.724.949-1.1,1.385-2.054,2.591-1.719,6.847Z" transform="translate(0 0)" fill="#007da1"/>
    <rect id="Rectangle_2248" data-name="Rectangle 2248" width="5.011" height="19.047" transform="translate(41.06 26.619)" fill="#e3fcfd"/>
    <rect id="Rectangle_2249" data-name="Rectangle 2249" width="5.011" height="1.774" transform="translate(41.06 22.511)" fill="#e3fcfd"/>
    <path id="Path_7608" data-name="Path 7608" d="M55.289,16.149c1.1,1.385,2.054,2.591,1.719,6.847H52.13c-.342-4.256.615-5.462,1.719-6.847.233-.3.475-.607.716-.949C54.806,15.542,55.055,15.854,55.289,16.149Z" transform="translate(-11 -2.819)" fill="#49afd9"/>
    <path id="Path_7609" data-name="Path 7609" d="M45.273,37.94V53.532H38.038v-9.5a1.17,1.17,0,0,0-1.167-1.167h-.226a4.324,4.324,0,0,0-2.614-2.957,6.744,6.744,0,0,1-1.26-.817A1.214,1.214,0,0,0,32,38.8V37.94H45.273Z" transform="translate(-6.548 -7.866)" fill="#e3fcfd"/>
    <path id="Path_7610" data-name="Path 7610" d="M41.487,33.5v1.12H14.94V33.5H41.487Z" transform="translate(-2.761 -6.881)" fill="#e3fcfd"/>
    <path id="Path_7611" data-name="Path 7611" d="M33.258,13.248c3.307,2.521,6.178,4.715,4.917,12.651H20.654c-1.26-7.936,1.611-10.13,4.917-12.651A22.242,22.242,0,0,0,29.414,9.77,22.243,22.243,0,0,0,33.258,13.248Zm2.91,9.15c.008-3.991-1.906-5.446-4.326-7.3a1.166,1.166,0,1,0-1.416,1.852c2.342,1.79,3.408,2.606,3.408,5.446a1.159,1.159,0,0,0,1.159,1.167H35A1.176,1.176,0,0,0,36.168,22.4Z" transform="translate(-3.962 -1.614)" fill="#49afd9"/>
    <path id="Path_7612" data-name="Path 7612" d="M34.585,16.551c2.42,1.852,4.334,3.307,4.326,7.3a1.176,1.176,0,0,1-1.167,1.167h-.008a1.159,1.159,0,0,1-1.159-1.167c0-2.84-1.066-3.657-3.408-5.446a1.166,1.166,0,0,1,1.416-1.852Z" transform="translate(-6.705 -3.065)" fill="#f5f6f8"/>
    <path id="Path_7613" data-name="Path 7613" d="M34.647,46.194v8.333H27.24V46.194h.109a1.166,1.166,0,0,0,1.167-1.167c0-1.245.443-1.494,1.517-2.077.288-.156.6-.327.91-.529.311.2.622.373.91.529,1.074.584,1.517.833,1.517,2.077a1.165,1.165,0,0,0,1.167,1.167h.109Z" transform="translate(-5.491 -8.86)" fill="#f5f6f8"/>
    <path id="Path_7614" data-name="Path 7614" d="M28.213,37.94V38.8a1.214,1.214,0,0,0-.77.288,6.744,6.744,0,0,1-1.26.817,4.324,4.324,0,0,0-2.614,2.957h-.226a1.17,1.17,0,0,0-1.167,1.167v9.5H14.94V37.94Z" transform="translate(-2.761 -7.866)" fill="#e3fcfd"/>
    <rect id="Rectangle_2250" data-name="Rectangle 2250" width="5.011" height="19.047" transform="translate(4.834 26.619)" fill="#e3fcfd"/>
    <rect id="Rectangle_2251" data-name="Rectangle 2251" width="5.011" height="1.774" transform="translate(4.834 22.511)" fill="#e3fcfd"/>
    <path id="Path_7615" data-name="Path 7615" d="M8.72,16.149c1.1,1.385,2.062,2.591,1.719,6.847H5.561c-.335-4.256.622-5.462,1.719-6.847.233-.3.482-.607.724-.949C8.245,15.542,8.486,15.854,8.72,16.149Z" transform="translate(-0.664 -2.819)" fill="#49afd9"/>
  </g>
</svg>
