<svg xmlns="http://www.w3.org/2000/svg" width="23.6" height="23.6" viewBox="0 0 23.6 23.6">
  <path id="Path_7646" data-name="Path 7646" d="M19.8,8a6.984,6.984,0,0,0-6.964,6.985c0,.384-.028.72-.048,1.07l-2.149-.628h0A1.227,1.227,0,0,0,9.372,17.41h0L11.9,20.3a8.737,8.737,0,0,1-2.241,3.211c-.4.368-.774.667-1.08.986A1.754,1.754,0,0,0,8,25.7a2.817,2.817,0,0,0,1.474,2.437,7.719,7.719,0,0,0,3.9.817,4.871,4.871,0,0,1,2.906,1.225A5.921,5.921,0,0,0,19.8,31.6a6,6,0,0,0,3.538-1.42,4.951,4.951,0,0,1,2.926-1.226,7.546,7.546,0,0,0,3.87-.819A2.879,2.879,0,0,0,31.6,25.713a1.727,1.727,0,0,0-.565-1.212c-.3-.321-.674-.621-1.075-.991a8.771,8.771,0,0,1-2.24-3.233l2.507-2.866h0a1.227,1.227,0,0,0-1.267-1.985h0l-2.113.617c-.019-.347-.046-.679-.046-1.059A7.014,7.014,0,0,0,19.8,8Zm0,1.073a5.93,5.93,0,0,1,5.93,5.911c0,.649.03,1.249.08,1.813a.536.536,0,0,0,.685.467l2.769-.809h0c.107-.031.132,0,.172.064s.059.1-.014.183h0l-2.747,3.14a.537.537,0,0,0-.1.54A9.729,9.729,0,0,0,29.233,24.3c.427.395.8.7,1.023.94s.273.359.271.449a1.687,1.687,0,0,1-.945,1.528,6.664,6.664,0,0,1-3.319.666,6,6,0,0,0-3.541,1.42A4.949,4.949,0,0,1,19.8,30.527,4.867,4.867,0,0,1,16.9,29.3a5.928,5.928,0,0,0-3.525-1.421,6.844,6.844,0,0,1-3.355-.668A1.627,1.627,0,0,1,9.073,25.7c0-.09.054-.218.284-.458s.6-.545,1.031-.938a9.7,9.7,0,0,0,2.663-3.892.537.537,0,0,0-.1-.541L10.18,16.7h0c-.073-.084-.053-.122-.014-.183s.065-.095.172-.064h0l2.8.819a.536.536,0,0,0,.685-.466c.051-.566.082-1.171.082-1.824A5.9,5.9,0,0,1,19.8,9.073Z" transform="translate(-8.001 -8)"/>
</svg>
