<svg xmlns="http://www.w3.org/2000/svg" width="20.801" height="20.801" viewBox="0 0 20.801 20.801">
  <g id="Group_51667" data-name="Group 51667" transform="translate(-8.5 -8.5)">
    <path id="Path_7648" data-name="Path 7648" d="M31.489,19.921a.979.979,0,0,1-.341-.066.965.965,0,0,1-.15-.08.992.992,0,0,1-.137-.111.894.894,0,0,1-.257-.628.753.753,0,0,1,.018-.173.693.693,0,0,1,.048-.164.99.99,0,0,1,.08-.155,1.058,1.058,0,0,1,.111-.133A1,1,0,0,1,31,18.3a.964.964,0,0,1,.15-.08,1.084,1.084,0,0,1,.168-.053.887.887,0,0,1,.8.244.8.8,0,0,1,.111.133,1.051,1.051,0,0,1,.084.155,1.028,1.028,0,0,1,.049.164,1.168,1.168,0,0,1,.018.173.88.88,0,0,1-.261.628.779.779,0,0,1-.133.111.99.99,0,0,1-.154.08.7.7,0,0,1-.164.048.756.756,0,0,1-.173.018ZM25.9,29.12a4.84,4.84,0,1,1,4.84-4.84A4.84,4.84,0,0,1,25.9,29.12Zm0-8.352a3.512,3.512,0,1,0,3.512,3.512A3.512,3.512,0,0,0,25.9,20.769Z" transform="translate(-7.004 -5.38)"/>
    <path id="Path_7649" data-name="Path 7649" d="M26.728,29.494a.664.664,0,0,1-.664-.664,2.631,2.631,0,0,1,1.757-2.479.664.664,0,1,1,.44,1.253,1.3,1.3,0,0,0-.87,1.226A.664.664,0,0,1,26.728,29.494Z" transform="translate(-9.791 -9.93)"/>
    <path id="Path_7650" data-name="Path 7650" d="M22,29.3H15.8A7.311,7.311,0,0,1,8.5,22V15.8a7.311,7.311,0,0,1,7.3-7.3H22a7.311,7.311,0,0,1,7.3,7.3V22A7.311,7.311,0,0,1,22,29.3ZM15.8,9.828A5.981,5.981,0,0,0,9.828,15.8V22A5.981,5.981,0,0,0,15.8,27.973H22A5.981,5.981,0,0,0,27.973,22V15.8A5.981,5.981,0,0,0,22,9.828Z"/>
  </g>
</svg>
