<svg xmlns="http://www.w3.org/2000/svg" width="36.752" height="36.428" viewBox="0 0 36.752 36.428">
  <g id="Group_51639" data-name="Group 51639" transform="translate(-2.5 -2.5)">
    <path id="Path_7607" data-name="Path 7607" d="M39.252,20.876V37.994a.933.933,0,0,1-.934.934H3.434a.933.933,0,0,1-.934-.934V17.587a.989.989,0,0,1,.093-.4c-.417-4.435.679-5.831,1.738-7.176A6.289,6.289,0,0,0,5.5,8.1a.934.934,0,0,1,1.757,0,6.289,6.289,0,0,0,1.165,1.906c1.059,1.346,2.155,2.735,1.738,7.176a.967.967,0,0,1,.093.4v2.355h1.732c-1.053-7.213,1.856-9.456,4.684-11.617a12.987,12.987,0,0,0,3.277-3.2V3.434a.934.934,0,0,1,1.869,0V5.129a12.987,12.987,0,0,0,3.277,3.2c2.828,2.162,5.737,4.4,4.684,11.617H31.5V17.587a.966.966,0,0,1,.093-.4c-.417-4.441.679-5.831,1.738-7.176A6.289,6.289,0,0,0,34.5,8.1a.934.934,0,0,1,1.757,0,6.289,6.289,0,0,0,1.165,1.906c1.059,1.346,2.155,2.741,1.738,7.176a.989.989,0,0,1,.093.4ZM37.384,37.06V21.811H33.372V37.06Zm0-17.118v-1.42H33.372v1.42Zm-.05-3.289c.268-3.407-.5-4.373-1.377-5.482-.187-.237-.386-.486-.579-.76-.193.274-.386.523-.573.76-.885,1.109-1.651,2.074-1.377,5.482ZM31.5,37.06V24.576H10.249V37.06h5.793V29.454a.937.937,0,0,1,.934-.934h.181a3.462,3.462,0,0,1,2.093-2.367A5.4,5.4,0,0,0,20.26,25.5a.94.94,0,0,1,1.233,0,5.4,5.4,0,0,0,1.009.654A3.462,3.462,0,0,1,24.6,28.519h.181a.937.937,0,0,1,.934.934V37.06Zm0-14.352v-.9H10.249v.9ZM27.89,19.942c1.009-6.354-1.289-8.11-3.937-10.129a17.808,17.808,0,0,1-3.077-2.784A17.808,17.808,0,0,1,17.8,9.813c-2.647,2.018-4.946,3.775-3.937,10.129ZM23.841,37.06V30.388h-.087a.933.933,0,0,1-.934-.934c0-1-.355-1.2-1.215-1.663-.23-.125-.48-.262-.729-.424-.249.162-.5.3-.729.424-.86.467-1.215.667-1.215,1.663a.933.933,0,0,1-.934.934h-.087V37.06Zm-15.461,0V21.811H4.369V37.06Zm0-17.118v-1.42H4.369v1.42Zm-.056-3.289c.274-3.407-.492-4.373-1.377-5.482-.187-.237-.38-.486-.573-.76-.193.274-.392.523-.579.76-.878,1.109-1.645,2.074-1.377,5.482Z" fill="#007da1"/>
    <rect id="Rectangle_2248" data-name="Rectangle 2248" width="4.012" height="15.249" transform="translate(33.372 21.811)" fill="#e3fcfd"/>
    <rect id="Rectangle_2249" data-name="Rectangle 2249" width="4.012" height="1.42" transform="translate(33.372 18.522)" fill="#e3fcfd"/>
    <path id="Path_7608" data-name="Path 7608" d="M54.645,15.96c.878,1.109,1.645,2.074,1.377,5.482H52.116c-.274-3.407.492-4.373,1.377-5.482.187-.237.38-.486.573-.76C54.259,15.474,54.458,15.723,54.645,15.96Z" transform="translate(-18.688 -4.789)" fill="#49afd9"/>
    <path id="Path_7609" data-name="Path 7609" d="M42.627,37.94V50.423H36.834V42.817a.937.937,0,0,0-.934-.934h-.181a3.462,3.462,0,0,0-2.093-2.367,5.4,5.4,0,0,1-1.009-.654.972.972,0,0,0-.617-.23V37.94H42.627Z" transform="translate(-11.124 -13.364)" fill="#e3fcfd"/>
    <path id="Path_7610" data-name="Path 7610" d="M36.194,33.5v.9H14.94v-.9H36.194Z" transform="translate(-4.691 -11.689)" fill="#e3fcfd"/>
    <path id="Path_7611" data-name="Path 7611" d="M30.684,12.554c2.647,2.018,4.946,3.775,3.937,10.129H20.593c-1.009-6.354,1.289-8.11,3.937-10.129A17.808,17.808,0,0,0,27.607,9.77,17.808,17.808,0,0,0,30.684,12.554Zm2.33,7.326c.006-3.2-1.526-4.36-3.463-5.843a.933.933,0,0,0-1.134,1.483c1.875,1.433,2.728,2.087,2.728,4.36a.928.928,0,0,0,.928.934h.006A.941.941,0,0,0,33.014,19.88Z" transform="translate(-6.731 -2.741)" fill="#49afd9"/>
    <path id="Path_7612" data-name="Path 7612" d="M34.21,16.5c1.937,1.483,3.47,2.647,3.463,5.843a.941.941,0,0,1-.934.934h-.006a.928.928,0,0,1-.928-.934c0-2.274-.853-2.928-2.728-4.36A.933.933,0,0,1,34.21,16.5Z" transform="translate(-11.391 -5.207)" fill="#f5f6f8"/>
    <path id="Path_7613" data-name="Path 7613" d="M33.17,45.441v6.671H27.24V45.441h.087a.933.933,0,0,0,.934-.934c0-1,.355-1.2,1.215-1.663.23-.125.48-.262.729-.424.249.162.5.3.729.424.86.467,1.215.667,1.215,1.663a.933.933,0,0,0,.934.934h.087Z" transform="translate(-9.329 -15.053)" fill="#f5f6f8"/>
    <path id="Path_7614" data-name="Path 7614" d="M25.567,37.94v.691a.972.972,0,0,0-.617.23,5.4,5.4,0,0,1-1.009.654,3.462,3.462,0,0,0-2.093,2.367h-.181a.937.937,0,0,0-.934.934v7.606H14.94V37.94Z" transform="translate(-4.691 -13.364)" fill="#e3fcfd"/>
    <rect id="Rectangle_2250" data-name="Rectangle 2250" width="4.012" height="15.249" transform="translate(4.369 21.811)" fill="#e3fcfd"/>
    <rect id="Rectangle_2251" data-name="Rectangle 2251" width="4.012" height="1.42" transform="translate(4.369 18.522)" fill="#e3fcfd"/>
    <path id="Path_7615" data-name="Path 7615" d="M8.076,15.96c.885,1.109,1.651,2.074,1.377,5.482H5.547c-.268-3.407.5-4.373,1.377-5.482.187-.237.386-.486.579-.76C7.7,15.474,7.889,15.723,8.076,15.96Z" transform="translate(-1.129 -4.789)" fill="#49afd9"/>
  </g>
</svg>
