<svg xmlns="http://www.w3.org/2000/svg" width="17.524" height="40" viewBox="0 0 17.524 40">
  <g id="Group_51643" data-name="Group 51643" transform="translate(-17.981)">
    <path id="Path_7616" data-name="Path 7616" d="M34.93,29.688V29.5a19.79,19.79,0,0,0-.5-3.437,16.741,16.741,0,0,1,.563-8.687,9.56,9.56,0,0,0,.5-3.437A7.2,7.2,0,0,0,31.18,7.125a1.56,1.56,0,0,1-.937-1.375V5.125h.063a.854.854,0,0,0,.875-.875V.875A.854.854,0,0,0,30.305,0H23.18a.854.854,0,0,0-.875.875V4.25a.854.854,0,0,0,.875.875h.063V5.75a1.492,1.492,0,0,1-.937,1.375c-1.562.688-4.125,2.438-4.312,6.813a9.755,9.755,0,0,0,.5,3.438,17.518,17.518,0,0,1,.563,8.687,30.571,30.571,0,0,0-.5,3.563v.063c-.062.75-.062,1.563-.062,2.375v5A2.934,2.934,0,0,0,21.43,40H32.118a2.934,2.934,0,0,0,2.938-2.937v-5c-.062-.75-.062-1.562-.125-2.375ZM24.055,1.813h5.313V3.375H24.055Zm9.188,35.25a1.12,1.12,0,0,1-1.125,1.125H21.368a1.12,1.12,0,0,1-1.125-1.125v-6.5H33.118c0,.5.063,1,.063,1.5v5Zm0-20.187a18.824,18.824,0,0,0-.625,9.625c.188.75.25,1.5.375,2.313H20.43a13.737,13.737,0,0,1,.375-2.313,18.824,18.824,0,0,0-.625-9.625,7.267,7.267,0,0,1-.25-1.125H33.555C33.493,16.063,33.368,16.438,33.243,16.875ZM19.805,13.938a5.252,5.252,0,0,1,3.25-5.063,3.334,3.334,0,0,0,2-3.062V5.187H28.43v.625a3.439,3.439,0,0,0,2,3.062,5.375,5.375,0,0,1,3.188,5.063Z" transform="translate(0)" fill="#2a2f63"/>
    <path id="Path_7617" data-name="Path 7617" d="M34.338,35.237v5a1.12,1.12,0,0,1-1.125,1.125H22.462a1.12,1.12,0,0,1-1.125-1.125v-6.5H34.213A11.2,11.2,0,0,1,34.338,35.237Zm.438-18.187H20.9a5.252,5.252,0,0,1,3.25-5.062,3.334,3.334,0,0,0,2-3.063V8.3h3.375v.625a3.439,3.439,0,0,0,2,3.063C32.963,12.55,34.65,13.925,34.775,17.05Z" transform="translate(-1.095 -3.112)" fill="#d7e9f2"/>
    <path id="Path_7618" data-name="Path 7618" d="M34.725,25.1H21.1a7.267,7.267,0,0,0,.25,1.125,18.824,18.824,0,0,1,.625,9.625c-.187.75-.25,1.5-.375,2.313H34.162a13.737,13.737,0,0,0-.375-2.312,18.824,18.824,0,0,1,.625-9.625A7.557,7.557,0,0,0,34.725,25.1ZM27.913,36.225a3.761,3.761,0,0,1-3.75-3.75c0-1.812,2.563-4.562,3.063-5.062a.8.8,0,0,1,.625-.25,1.11,1.11,0,0,1,.625.25c.5.5,3.063,3.25,3.063,5.062A3.58,3.58,0,0,1,27.913,36.225Z" transform="translate(-1.17 -9.413)" fill="#219ff4"/>
    <rect id="Rectangle_2252" data-name="Rectangle 2252" width="5.313" height="1.563" transform="translate(24.055 1.813)" fill="#a0c3d8"/>
  </g>
</svg>
