<svg id="Icon-Credit-Card" xmlns="http://www.w3.org/2000/svg" width="29.745" height="22.8" viewBox="0 0 29.745 22.8">
  <path id="Fill-7_1_" d="M-93.1-495.8h-24.459a2.623,2.623,0,0,1-2.643-2.643v-17.515a2.623,2.623,0,0,1,2.643-2.643H-93.1a2.623,2.623,0,0,1,2.643,2.643v17.515A2.623,2.623,0,0,1-93.1-495.8Zm-24.459-21.018a.84.84,0,0,0-.86.86v17.515a.84.84,0,0,0,.86.86H-93.1a.84.84,0,0,0,.86-.86v-17.515a.84.84,0,0,0-.86-.86Z" transform="translate(120.2 518.6)" fill="#49afd9"/>
  <path id="Fill-8_1_" d="M-118.8-512.8h28.024v5.224H-118.8Z" transform="translate(119.66 516.364)" fill="#49afd9"/>
  <g id="Group_51647" data-name="Group 51647">
    <path id="Fill-9_1_" d="M-114.5-498.6h.86v1.782h-.86Z" transform="translate(118.003 510.891)" fill="#49afd9"/>
    <path id="Fill-10_1_" d="M-111.7-498.6h.922v1.782h-.922Z" transform="translate(116.924 510.891)" fill="#49afd9"/>
    <path id="Fill-11_1_" d="M-108.8-498.6h.86v1.782h-.86Z" transform="translate(115.806 510.891)" fill="#49afd9"/>
    <path id="Fill-12_1_" d="M-104.5-498.6h.86v1.782h-.86Z" transform="translate(114.149 510.891)" fill="#49afd9"/>
    <path id="Fill-13_1_" d="M-101.7-498.6h.86v1.782h-.86Z" transform="translate(113.069 510.891)" fill="#49afd9"/>
    <path id="Fill-14_1_" d="M-98.8-498.6h.86v1.782h-.86Z" transform="translate(111.952 510.891)" fill="#49afd9"/>
    <path id="Fill-15_1_" d="M-94.6-498.6h.86v1.782h-.86Z" transform="translate(110.333 510.891)" fill="#49afd9"/>
    <path id="Fill-16_1_" d="M-91.7-498.6h.86v1.782h-.86Z" transform="translate(109.215 510.891)" fill="#49afd9"/>
    <path id="Fill-17_1_" d="M-88.9-498.6h.86v1.782h-.86Z" transform="translate(108.136 510.891)" fill="#49afd9"/>
    <path id="Fill-18_1_" d="M-84.6-498.6h.86v1.782h-.86Z" transform="translate(106.478 510.891)" fill="#49afd9"/>
    <path id="Fill-19_1_" d="M-81.8-498.6h.922v1.782H-81.8Z" transform="translate(105.399 510.891)" fill="#49afd9"/>
    <path id="Fill-20_1_" d="M-78.9-498.6h.86v1.782h-.86Z" transform="translate(104.281 510.891)" fill="#49afd9"/>
  </g>
</svg>
