<svg xmlns="http://www.w3.org/2000/svg" width="18.139" height="18.139" viewBox="0 0 18.139 18.139">
  <g id="Icon_ionic-ios-add-circle-outline" data-name="Icon ionic-ios-add-circle-outline" transform="translate(-3.375 -3.375)">
    <path id="Path_43585" data-name="Path 43585" d="M19.1,14.458H15.853V11.209a.7.7,0,1,0-1.4,0v3.248H11.209a.668.668,0,0,0-.7.7.675.675,0,0,0,.7.7h3.248V19.1a.676.676,0,0,0,.7.7.694.694,0,0,0,.7-.7V15.853H19.1a.7.7,0,1,0,0-1.4Z" transform="translate(-2.711 -2.711)" fill="#56607c"/>
    <path id="Path_43586" data-name="Path 43586" d="M12.444,4.6a7.845,7.845,0,1,1-5.551,2.3,7.8,7.8,0,0,1,5.551-2.3m0-1.221a9.069,9.069,0,1,0,9.069,9.069,9.068,9.068,0,0,0-9.069-9.069Z" fill="#56607c"/>
  </g>
</svg>
