<svg xmlns="http://www.w3.org/2000/svg" width="17.512" height="19.458" viewBox="0 0 17.512 19.458">
  <path id="Icon_metro-event-available" data-name="Icon metro-event-available" d="M19.59,13.643l-1.031-1.031L13.811,17.36,11.748,15.3l-1.031,1.031,3.094,3.094Zm2.4-7.841H21.02V3.856H19.074V5.8H11.291V3.856H9.345V5.8H8.373A1.937,1.937,0,0,0,6.437,7.748l-.01,13.62a1.945,1.945,0,0,0,1.946,1.946h13.62a1.945,1.945,0,0,0,1.946-1.946V7.748A1.945,1.945,0,0,0,21.993,5.8Zm0,15.566H8.373v-10.7h13.62Z" transform="translate(-6.427 -3.856)" fill="#56607c"/>
</svg>
