<svg xmlns="http://www.w3.org/2000/svg" width="16.521" height="21.694" viewBox="0 0 16.521 21.694">
  <path id="Icon_awesome-clipboard-list" data-name="Icon awesome-clipboard-list" d="M13.58,2.587H10.347a2.587,2.587,0,1,0-5.174,0H1.94A1.941,1.941,0,0,0,0,4.527V18.754a1.941,1.941,0,0,0,1.94,1.94H13.58a1.941,1.941,0,0,0,1.94-1.94V4.527A1.941,1.941,0,0,0,13.58,2.587Zm-9.7,14.55a.97.97,0,1,1,.97-.97A.968.968,0,0,1,3.88,17.137Zm0-3.88a.97.97,0,1,1,.97-.97A.968.968,0,0,1,3.88,13.257Zm0-3.88a.97.97,0,1,1,.97-.97A.968.968,0,0,1,3.88,9.377Zm3.88-7.76a.97.97,0,1,1-.97.97A.968.968,0,0,1,7.76,1.617Zm5.174,14.874a.324.324,0,0,1-.323.323H6.79a.324.324,0,0,1-.323-.323v-.647a.324.324,0,0,1,.323-.323h5.82a.324.324,0,0,1,.323.323Zm0-3.88a.324.324,0,0,1-.323.323H6.79a.324.324,0,0,1-.323-.323v-.647a.324.324,0,0,1,.323-.323h5.82a.324.324,0,0,1,.323.323Zm0-3.88a.324.324,0,0,1-.323.323H6.79a.324.324,0,0,1-.323-.323V8.084A.324.324,0,0,1,6.79,7.76h5.82a.324.324,0,0,1,.323.323Z" transform="translate(0.5 0.5)" fill="none" stroke="#56607c" stroke-width="1"/>
</svg>
