<svg id="logout_1_" data-name="logout (1)" xmlns="http://www.w3.org/2000/svg" width="20.419" height="20.418" viewBox="0 0 20.419 20.418">
  <path id="Path_43526" data-name="Path 43526" d="M286.052,209.284H277.97a.638.638,0,0,1,0-1.276h8.082a.638.638,0,0,1,0,1.276Zm0,0" transform="translate(-266.272 -199.713)" fill="#56607c"/>
  <path id="Path_43527" data-name="Path 43527" d="M400.642,135.628a.638.638,0,0,1-.451-1.09l2.74-2.739-2.74-2.74a.638.638,0,1,1,.9-.9l3.19,3.19a.638.638,0,0,1,0,.9l-3.19,3.19A.634.634,0,0,1,400.642,135.628Zm0,0" transform="translate(-384.052 -122.867)" fill="#56607c"/>
  <path id="Path_43528" data-name="Path 43528" d="M6.806,20.426a1.753,1.753,0,0,1-.527-.079l-5.12-1.706A1.717,1.717,0,0,1,0,17.023V1.71A1.7,1.7,0,0,1,1.7.008a1.755,1.755,0,0,1,.527.079l5.12,1.706A1.717,1.717,0,0,1,8.507,3.411V18.725a1.7,1.7,0,0,1-1.7,1.7ZM1.7,1.284a.427.427,0,0,0-.425.425V17.023a.442.442,0,0,0,.3.41l5.1,1.7a.462.462,0,0,0,.139.019.427.427,0,0,0,.425-.425V3.411a.442.442,0,0,0-.3-.41L1.84,1.3A.462.462,0,0,0,1.7,1.284Zm0,0" transform="translate(0 -0.008)" fill="#56607c"/>
  <path id="Path_43529" data-name="Path 43529" d="M38.578,6.814a.638.638,0,0,1-.638-.638V2.348a1.065,1.065,0,0,0-1.063-1.064H27.306a.638.638,0,1,1,0-1.276h9.571a2.341,2.341,0,0,1,2.339,2.34V6.176A.638.638,0,0,1,38.578,6.814Zm0,0" transform="translate(-25.604 -0.008)" fill="#56607c"/>
  <path id="Path_43530" data-name="Path 43530" d="M185.373,284.146h-3.4a.638.638,0,0,1,0-1.276h3.4a1.065,1.065,0,0,0,1.063-1.064v-3.828a.638.638,0,0,1,1.276,0v3.828A2.341,2.341,0,0,1,185.373,284.146Zm0,0" transform="translate(-174.101 -266.28)" fill="#56607c"/>
</svg>
