<svg xmlns="http://www.w3.org/2000/svg" width="18.1" height="20.959" viewBox="0 0 18.1 20.959">
  <path id="Path_43531" data-name="Path 43531" d="M131.579,124.9a11.141,11.141,0,0,0,8.931-4.531.618.618,0,0,0,.106-.493,9.285,9.285,0,0,0-6.33-6.884,4.93,4.93,0,1,0-5.413,0,9.286,9.286,0,0,0-6.33,6.882.618.618,0,0,0,.106.493,11.14,11.14,0,0,0,8.931,4.532Zm-3.7-16.024a3.7,3.7,0,1,1,3.7,3.7A3.7,3.7,0,0,1,127.881,108.876Zm3.7,4.931a8.051,8.051,0,0,1,7.766,6.057,9.833,9.833,0,0,1-15.536,0A8.05,8.05,0,0,1,131.579,113.807Zm0,0" transform="translate(-122.529 -103.941)" fill="#312482"/>
</svg>
